<svg width="34" height="24" viewBox="0 0 34 24" fill="none" xmlns="http://www.w3.org/2000/svg">
<path d="M22.1727 15.2843L21.2994 14.4747L20.653 15.4748C19.9341 16.5871 18.6866 17.3626 17.3029 17.8663C15.9395 18.3627 14.5629 18.5511 13.7341 18.5732C12.3062 18.5516 11.1035 18.3835 10.0947 18.1222L10.0947 18.1221C6.15243 17.1008 5.08965 14.6465 5.00016 13.5373C4.97666 9.46758 7.647 7.34151 10.3626 6.33171C10.6559 6.22264 10.9478 6.12771 11.2342 6.04594L11.7738 5.89185L11.9234 5.3509L12.5646 3.03222C12.5649 3.03148 12.5653 3.03048 12.5658 3.02922C12.5675 3.02507 12.57 3.01967 12.5731 3.01351C13.8937 3.23381 15.8425 3.77834 17.5258 4.7076C19.2969 5.68531 20.5503 6.95829 20.78 8.52193L20.8251 8.82879L21.0359 9.05628C21.2536 9.29126 21.4247 9.50261 21.5493 9.67685L22.2123 10.6044L23.0454 9.82604C24.199 8.74838 25.8898 8.02576 26.6946 7.76808C26.6907 7.8327 26.6804 7.89699 26.6675 7.95001L26.6547 8.00212L26.6476 8.0553C26.2847 10.7778 26.2839 12.488 26.3637 13.2226C26.3202 13.5737 26.3553 13.9258 26.4123 14.2321C26.4821 14.6069 26.5992 14.9871 26.7291 15.3376C26.9771 16.007 27.3006 16.6445 27.5399 17.0574C27.5645 17.1176 27.5746 17.159 27.5787 17.1839C27.557 17.201 27.5188 17.2259 27.4594 17.2515C27.4013 17.2766 27.3408 17.2947 27.288 17.3062H26.5676C25.6818 17.2583 24.7677 16.9326 23.9563 16.5064C23.1408 16.0781 22.4955 15.5835 22.1727 15.2843ZM27.5813 17.2134C27.5813 17.2134 27.5813 17.2127 27.5814 17.2115L27.5813 17.2134Z" fill="white" stroke="#212121" stroke-width="2"/>
<path d="M11.3776 5.08437C12.2543 4.83404 13.0806 4.69841 13.7603 4.65063C17.7621 4.65063 20.7467 6.822 22.1874 8.37658M11.3776 5.08437L12.0205 2.75928C12.0962 2.48818 12.3987 1.95734 13.0039 2.00274C15.8168 2.43775 21.5916 4.32153 22.1874 8.37658M11.3776 5.08437C11.0673 5.17296 10.7507 5.27591 10.432 5.3944L11.3776 5.08437ZM22.1874 8.37658C22.4296 8.63804 22.6283 8.88203 22.7807 9.0953C24.1574 7.80918 26.1405 7.00853 26.96 6.76893C28.1703 6.54197 28.1955 7.62004 28.0568 8.18745C27.6635 11.138 27.7164 12.7834 27.7921 13.2374C27.5954 14.1603 28.4161 15.8663 28.8511 16.604C29.3806 17.769 28.3657 18.2243 27.7921 18.3062H26.96C24.7815 18.2003 22.6862 16.7364 21.9108 16.0176C20.1408 18.7563 16.0044 19.5293 14.1574 19.5734C12.6511 19.5521 11.3616 19.3751 10.2618 19.0902M10.432 5.3944C7.49235 6.48754 4.37563 8.90408 4.4184 13.5778C4.5241 15.1383 5.90528 17.9615 10.2618 19.0902M10.432 5.3944C10.9237 5.77064 12.0924 6.81811 12.8337 7.99831L10.432 5.3944ZM10.2618 19.0902C11.8897 17.9525 14.8232 14.4213 13.5334 9.39791L10.2618 19.0902Z" fill="white"/>
<path d="M11.3776 5.08437C12.2543 4.83404 13.0806 4.69841 13.7603 4.65063C17.7621 4.65063 20.7467 6.822 22.1874 8.37658M11.3776 5.08437L12.0205 2.75928C12.0962 2.48818 12.3987 1.95734 13.0039 2.00274C15.8168 2.43775 21.5916 4.32153 22.1874 8.37658M11.3776 5.08437C11.0673 5.17296 10.7507 5.27591 10.432 5.3944M22.1874 8.37658C22.4296 8.63804 22.6283 8.88203 22.7807 9.0953C24.1574 7.80918 26.1405 7.00853 26.96 6.76893C28.1703 6.54197 28.1955 7.62004 28.0568 8.18745C27.6635 11.138 27.7164 12.7834 27.7921 13.2374C27.5954 14.1603 28.4161 15.8663 28.8511 16.604C29.3806 17.769 28.3657 18.2243 27.7921 18.3062H26.96C24.7815 18.2003 22.6862 16.7364 21.9108 16.0176C20.1408 18.7563 16.0044 19.5293 14.1574 19.5734C12.6511 19.5521 11.3616 19.3751 10.2618 19.0902M10.432 5.3944C7.49235 6.48754 4.37563 8.90408 4.4184 13.5778C4.5241 15.1383 5.90528 17.9615 10.2618 19.0902M10.432 5.3944C10.9237 5.77064 12.0924 6.81811 12.8337 7.99831M10.2618 19.0902C11.8897 17.9525 14.8232 14.4213 13.5334 9.39791" stroke="#212121" stroke-width="0.5" stroke-linecap="round"/>
<path opacity="0.8" d="M18.5609 8.47085C19.4056 8.63479 20.7243 9.38626 19.2417 11.0809C19.8217 11.4214 20.6335 12.3897 19.2417 13.5397C19.8532 14.0314 20.6033 15.2192 18.7122 16.0363M14.7031 7.2793C15.6865 7.35495 17.2296 7.99423 15.5352 9.9461C16.0269 10.3622 16.7152 11.4289 15.5352 12.367C16.0584 12.8336 16.7909 14.073 15.5352 15.2986" stroke="#212121" stroke-width="0.5"/>
<path opacity="0.8" d="M25.6145 9.37891L22.4375 11.5729V12.4807M22.4375 12.4807L25.6145 11.8566M22.4375 12.4807V13.3507M25.6145 16.358L22.4375 14.2208V13.3507M22.4375 13.3507L25.6145 13.956" stroke="#212121" stroke-width="0.5"/>
<path d="M16.6021 14.3169L15.8177 17.5532C15.7659 17.7671 15.5431 17.8917 15.3337 17.824L12.6995 16.9716C12.4761 16.8993 12.3718 16.6431 12.4813 16.4354L13.0061 15.4392C13.0439 15.3673 13.104 15.3095 13.1772 15.2744L16.0711 13.8867C16.3586 13.7488 16.6773 14.0069 16.6021 14.3169Z" fill="white" stroke="#212121" stroke-width="0.5"/>
<path d="M8.90039 10.5752H10.9422" stroke="#212121" stroke-width="0.5" stroke-linecap="round"/>
<path d="M8.90039 10.9834H10.9422" stroke="#212121" stroke-width="0.5" stroke-linecap="round"/>
</svg>
